<svg fill="#e3e3e3" height="50" viewBox="0 -960 3200 2000" width="80" xmlns="http://www.w3.org/2000/svg"><g transform="translate(298.1498 179.03083)"><path d="m764.92511 425.42293 126-76 125.99999 77-32.99999-144 110.99999-96-145.99999-13-58-136.000002-58 135.000002-146 13 111 97zm-121 167 65-281-218-189 288-25.000002 112-264.999998 111.99999 264.999998 288 25.000002-218 189 65 281-246.99999-149z"/><path d="m1586.7753 425.42293 126-76 126 77-33-144 111-96-146-13-58-136.000002-58 135.000002-146 13 111 97zm-121 167 65-281-218-189 288-25.000002 112-264.999998 112 264.999998 288 25.000002-218 189 65 281-247-149z"/><path d="m354-277.48458 126-76 126 77-33-144 111-96-146-13-58-136-58 135-146 13 111 97zm-121 167 65-281-218-189 288-25 112-265 112 265 288 25-218 189 65 281-247-149z"/><path d="m1175.8502-277.48458 126-76 126 77-33-144 111-96-146-13-58-136-58 135-146 13 111 97zm-121 167 65-281-218.00004-189 288.00004-25 112-265 112 265 288 25-218 189 65 281-247-149z"/><path d="m1997.7004-277.48458 126-76 126 77-33-144 111-96-146-13-58-136-58 135-146 13 111 97zm-121 167 65-281-218-189 288-25 112-265 112 265 288 25-218 189 65 281-247-149z"/><path d="m233-110.48458 65-281-218-189 288-25 112-265 112 265 288 25-218 189 65 281-247-149z"/></g></svg>