<?xml version="1.0" encoding="utf-8"?>
<svg viewBox="0 0 24 24" xmlns="http://www.w3.org/2000/svg">
  <path id="path12-7" d="M 6.007 12.493 C 4.721 13.568 3.97 15.174 3.97 16.864 C 3.97 19.99 6.46 22.524 9.533 22.524 C 9.977 22.524 10.415 22.468 10.84 22.361 C 9.616 22.086 8.49 21.464 7.565 20.607 C 6.209 19.871 5.36 18.428 5.36 16.864 C 5.36 16.652 5.382 16.447 5.41 16.235 C 5.382 15.974 5.36 15.712 5.36 15.449 C 5.36 14.431 5.584 13.419 6.007 12.493 Z M 8.42 11.472 C 7.134 12.547 6.382 14.153 6.382 15.843 C 6.382 18.969 8.873 21.503 11.945 21.503 C 12.39 21.503 12.829 21.447 13.252 21.34 C 12.029 21.065 10.902 20.443 9.977 19.586 C 8.622 18.85 7.773 17.407 7.773 15.843 C 7.773 15.631 7.794 15.426 7.822 15.214 C 7.794 14.952 7.773 14.69 7.773 14.428 C 7.773 13.41 7.996 12.398 8.42 11.472 Z M 14.42 14.137 C 14.111 14.137 13.86 14.393 13.86 14.708 C 13.86 15.023 14.111 15.279 14.42 15.279 C 14.73 15.279 14.981 15.023 14.981 14.708 C 14.981 14.393 14.73 14.137 14.42 14.137 M 14.42 17.276 C 13.018 17.276 11.896 16.135 11.896 14.708 C 11.896 13.28 13.018 12.139 14.42 12.139 C 15.823 12.139 16.945 13.28 16.945 14.708 C 16.945 16.135 15.823 17.276 14.42 17.276 M 14.42 9 C 11.322 9 8.811 11.555 8.811 14.708 C 8.811 17.86 11.322 20.416 14.42 20.416 C 17.519 20.416 20.03 17.86 20.03 14.708 C 20.03 11.555 17.519 9 14.42 9 Z" stroke-width="0" fill="#000" style=""/>
  <text style="white-space: pre; fill: #000; font-family: Arial, sans-serif; font-size: 7.9px;" x="3.213" y="7.736">1001</text>
</svg>